<?xml version="1.0" encoding="UTF-8"?>
<!DOCTYPE svg PUBLIC "-//W3C//DTD SVG 1.1//EN" "http://www.w3.org/Graphics/SVG/1.1/DTD/svg11.dtd">
<svg xmlns="http://www.w3.org/2000/svg" version="1.1" width="786px" height="1017px" style="shape-rendering:geometricPrecision; text-rendering:geometricPrecision; image-rendering:optimizeQuality; fill-rule:evenodd; clip-rule:evenodd" xmlns:xlink="http://www.w3.org/1999/xlink">
<g><path style="opacity:0.952" fill="#000000" d="M 289.5,168.5 C 359.834,168.333 430.167,168.5 500.5,169C 501.487,180.085 501.821,191.252 501.5,202.5C 524.169,202.333 546.836,202.5 569.5,203C 570.488,214.419 570.821,225.919 570.5,237.5C 581.838,237.333 593.172,237.5 604.5,238C 605.487,249.085 605.821,260.252 605.5,271.5C 616.552,271.189 627.552,271.522 638.5,272.5C 639.499,283.814 639.832,295.147 639.5,306.5C 651.081,306.179 662.581,306.512 674,307.5C 674.5,330.164 674.667,352.831 674.5,375.5C 685.748,375.179 696.915,375.513 708,376.5C 708.667,446.833 708.667,517.167 708,587.5C 696.915,588.487 685.748,588.821 674.5,588.5C 674.667,611.169 674.5,633.836 674,656.5C 662.581,657.488 651.081,657.821 639.5,657.5C 639.5,668.833 639.5,680.167 639.5,691.5C 628.167,691.5 616.833,691.5 605.5,691.5C 605.667,702.838 605.5,714.172 605,725.5C 593.581,726.488 582.081,726.821 570.5,726.5C 570.821,738.081 570.488,749.581 569.5,761C 546.836,761.5 524.169,761.667 501.5,761.5C 501.821,772.748 501.487,783.915 500.5,795C 430.167,795.667 359.833,795.667 289.5,795C 288.167,784 288.167,773 289.5,762C 266.5,761.667 243.5,761.333 220.5,761C 219.512,749.581 219.179,738.081 219.5,726.5C 208.167,726.5 196.833,726.5 185.5,726.5C 185.5,714.833 185.5,703.167 185.5,691.5C 173.833,691.5 162.167,691.5 150.5,691.5C 150.5,680.167 150.5,668.833 150.5,657.5C 138.919,657.821 127.419,657.488 116,656.5C 115.5,633.836 115.333,611.169 115.5,588.5C 104.252,588.821 93.0854,588.487 82,587.5C 81.3333,517.167 81.3333,446.833 82,376.5C 93.0854,375.513 104.252,375.179 115.5,375.5C 115.333,352.831 115.5,330.164 116,307.5C 127.419,306.512 138.919,306.179 150.5,306.5C 150.5,295.167 150.5,283.833 150.5,272.5C 162.043,271.218 173.543,271.218 185,272.5C 185.5,260.838 185.667,249.171 185.5,237.5C 196.833,237.5 208.167,237.5 219.5,237.5C 219.179,225.919 219.512,214.419 220.5,203C 243.164,202.5 265.831,202.333 288.5,202.5C 288.189,191.086 288.523,179.752 289.5,168.5 Z"/></g>
<g><path style="opacity:1" fill="#6e0000" d="M 499.5,204.5 C 429.998,204.167 360.665,204.501 291.5,205.5C 291.5,216.5 291.5,227.5 291.5,238.5C 291.167,238.5 290.833,238.5 290.5,238.5C 290.5,227.167 290.5,215.833 290.5,204.5C 360.167,203.167 429.833,203.167 499.5,204.5 Z"/></g>
<g><path style="opacity:1" fill="#fe0000" d="M 291.5,205.5 C 360.5,205.5 429.5,205.5 498.5,205.5C 498.5,216.5 498.5,227.5 498.5,238.5C 509.451,240.478 520.784,241.144 532.5,240.5C 531.856,251.884 532.523,262.884 534.5,273.5C 545.321,274.495 556.321,274.828 567.5,274.5C 567.5,320.167 567.5,365.833 567.5,411.5C 555.919,411.179 544.419,411.512 533,412.5C 532.5,435.164 532.333,457.831 532.5,480.5C 521.321,480.172 510.321,480.505 499.5,481.5C 498.505,492.988 498.172,504.655 498.5,516.5C 487.167,516.5 475.833,516.5 464.5,516.5C 463.505,527.654 463.172,538.988 463.5,550.5C 440.833,550.5 418.167,550.5 395.5,550.5C 395.828,538.988 395.495,527.654 394.5,516.5C 360.002,515.336 325.336,515.169 290.5,516C 289.512,527.419 289.179,538.919 289.5,550.5C 255.5,550.5 221.5,550.5 187.5,550.5C 187.828,538.988 187.495,527.654 186.5,516.5C 175.679,515.505 164.679,515.172 153.5,515.5C 153.667,504.162 153.5,492.828 153,481.5C 141.581,480.512 130.081,480.179 118.5,480.5C 118.5,446.5 118.5,412.5 118.5,378.5C 129.5,378.5 140.5,378.5 151.5,378.5C 153.49,355.858 154.156,332.858 153.5,309.5C 164.5,309.5 175.5,309.5 186.5,309.5C 188.478,298.549 189.144,287.216 188.5,275.5C 200.216,276.144 211.549,275.478 222.5,273.5C 222.5,262.5 222.5,251.5 222.5,240.5C 245.858,241.156 268.858,240.49 291.5,238.5C 291.5,227.5 291.5,216.5 291.5,205.5 Z"/></g>
<g><path style="opacity:1" fill="#b10000" d="M 291.5,205.5 C 360.665,204.501 429.998,204.167 499.5,204.5C 499.5,215.833 499.5,227.167 499.5,238.5C 499.167,238.5 498.833,238.5 498.5,238.5C 498.5,227.5 498.5,216.5 498.5,205.5C 429.5,205.5 360.5,205.5 291.5,205.5 Z"/></g>
<g><path style="opacity:0.999" fill="#190000" d="M 290.5,204.5 C 290.5,215.833 290.5,227.167 290.5,238.5C 267.327,238.169 244.327,238.502 221.5,239.5C 221.167,239.5 220.833,239.5 220.5,239.5C 243.142,237.51 266.142,236.844 289.5,237.5C 289.172,226.321 289.505,215.321 290.5,204.5 Z"/></g>
<g><path style="opacity:1" fill="#dc0000" d="M 290.5,238.5 C 290.833,238.5 291.167,238.5 291.5,238.5C 268.858,240.49 245.858,241.156 222.5,240.5C 245.167,239.833 267.833,239.167 290.5,238.5 Z"/></g>
<g><path style="opacity:1" fill="#990001" d="M 290.5,238.5 C 267.833,239.167 245.167,239.833 222.5,240.5C 222.5,251.5 222.5,262.5 222.5,273.5C 222.167,273.5 221.833,273.5 221.5,273.5C 221.5,262.167 221.5,250.833 221.5,239.5C 244.327,238.502 267.327,238.169 290.5,238.5 Z"/></g>
<g><path style="opacity:1" fill="#d70000" d="M 498.5,238.5 C 498.833,238.5 499.167,238.5 499.5,238.5C 510.988,239.495 522.655,239.828 534.5,239.5C 534.5,250.833 534.5,262.167 534.5,273.5C 532.523,262.884 531.856,251.884 532.5,240.5C 520.784,241.144 509.451,240.478 498.5,238.5 Z"/></g>
<g><path style="opacity:1" fill="#590000" d="M 499.5,238.5 C 522.673,238.169 545.673,238.502 568.5,239.5C 568.5,250.833 568.5,262.167 568.5,273.5C 557.167,273.5 545.833,273.5 534.5,273.5C 534.5,262.167 534.5,250.833 534.5,239.5C 522.655,239.828 510.988,239.495 499.5,238.5 Z"/></g>
<g><path style="opacity:1" fill="#320100" d="M 220.5,239.5 C 220.833,239.5 221.167,239.5 221.5,239.5C 221.5,250.833 221.5,262.167 221.5,273.5C 209.833,273.5 198.167,273.5 186.5,273.5C 197.654,272.505 208.988,272.172 220.5,272.5C 220.5,261.5 220.5,250.5 220.5,239.5 Z"/></g>
<g><path style="opacity:0.999" fill="#160000" d="M 568.5,239.5 C 569.495,250.321 569.828,261.321 569.5,272.5C 581.012,272.172 592.346,272.505 603.5,273.5C 592.167,273.5 580.833,273.5 569.5,273.5C 569.167,273.5 568.833,273.5 568.5,273.5C 568.5,262.167 568.5,250.833 568.5,239.5 Z"/></g>
<g><path style="opacity:1" fill="#ea0000" d="M 221.5,273.5 C 221.833,273.5 222.167,273.5 222.5,273.5C 211.549,275.478 200.216,276.144 188.5,275.5C 189.144,287.216 188.478,298.549 186.5,309.5C 186.5,309.167 186.5,308.833 186.5,308.5C 187.495,297.346 187.828,286.012 187.5,274.5C 199.012,274.828 210.346,274.495 221.5,273.5 Z"/></g>
<g><path style="opacity:1" fill="#d30000" d="M 534.5,273.5 C 545.833,273.5 557.167,273.5 568.5,273.5C 568.5,319.833 568.5,366.167 568.5,412.5C 557.167,412.5 545.833,412.5 534.5,412.5C 534.831,435.673 534.498,458.673 533.5,481.5C 522.167,481.5 510.833,481.5 499.5,481.5C 510.321,480.505 521.321,480.172 532.5,480.5C 532.333,457.831 532.5,435.164 533,412.5C 544.419,411.512 555.919,411.179 567.5,411.5C 567.5,365.833 567.5,320.167 567.5,274.5C 556.321,274.828 545.321,274.495 534.5,273.5 Z"/></g>
<g><path style="opacity:1" fill="#5b0000" d="M 568.5,273.5 C 568.833,273.5 569.167,273.5 569.5,273.5C 569.5,274.167 569.833,274.5 570.5,274.5C 570.333,320.501 570.5,366.501 571,412.5C 572.157,389.753 572.657,366.919 572.5,344C 572.485,320.804 572.152,297.637 571.5,274.5C 581.833,274.5 592.167,274.5 602.5,274.5C 602.172,286.012 602.505,297.346 603.5,308.5C 614.833,308.5 626.167,308.5 637.5,308.5C 638.498,331.327 638.831,354.327 638.5,377.5C 649.321,378.495 660.321,378.828 671.5,378.5C 671.5,424.167 671.5,469.833 671.5,515.5C 660.321,515.172 649.321,515.505 638.5,516.5C 637.505,527.654 637.172,538.988 637.5,550.5C 602.833,550.5 568.167,550.5 533.5,550.5C 533.5,562.167 533.5,573.833 533.5,585.5C 499.336,586.664 465.002,586.831 430.5,586C 429.513,574.915 429.179,563.748 429.5,552.5C 429.5,552.167 429.5,551.833 429.5,551.5C 441.167,551.5 452.833,551.5 464.5,551.5C 465.495,540.346 465.828,529.012 465.5,517.5C 477.012,517.828 488.346,517.495 499.5,516.5C 499.833,516.5 500.167,516.5 500.5,516.5C 502.475,506.554 503.142,496.221 502.5,485.5C 513.221,486.142 523.554,485.475 533.5,483.5C 534.5,483.167 535.167,482.5 535.5,481.5C 536.497,459.673 536.831,437.673 536.5,415.5C 547.172,415.667 557.839,415.5 568.5,415C 557.659,414.83 546.992,414.33 536.5,413.5C 547.346,413.828 558.013,413.494 568.5,412.5C 568.5,366.167 568.5,319.833 568.5,273.5 Z"/></g>
<g><path style="opacity:1" fill="#930000" d="M 186.5,273.5 C 198.167,273.5 209.833,273.5 221.5,273.5C 210.346,274.495 199.012,274.828 187.5,274.5C 187.828,286.012 187.495,297.346 186.5,308.5C 186.5,308.167 186.5,307.833 186.5,307.5C 186.5,296.167 186.5,284.833 186.5,273.5 Z"/></g>
<g><path style="opacity:1" fill="#530000" d="M 570.5,274.5 C 570.833,274.5 571.167,274.5 571.5,274.5C 572.152,297.637 572.485,320.804 572.5,344C 572.657,366.919 572.157,389.753 571,412.5C 570.5,366.501 570.333,320.501 570.5,274.5 Z"/></g>
<g><path style="opacity:1" fill="#3c0000" d="M 569.5,273.5 C 580.833,273.5 592.167,273.5 603.5,273.5C 603.5,285.167 603.5,296.833 603.5,308.5C 602.505,297.346 602.172,286.012 602.5,274.5C 592.167,274.5 581.833,274.5 571.5,274.5C 571.167,274.5 570.833,274.5 570.5,274.5C 569.833,274.5 569.5,274.167 569.5,273.5 Z"/></g>
<g><path style="opacity:0.998" fill="#190000" d="M 603.5,273.5 C 604.495,284.654 604.828,295.988 604.5,307.5C 615.679,307.172 626.679,307.505 637.5,308.5C 626.167,308.5 614.833,308.5 603.5,308.5C 603.5,296.833 603.5,285.167 603.5,273.5 Z"/></g>
<g><path style="opacity:1" fill="#630000" d="M 186.5,307.5 C 186.5,307.833 186.5,308.167 186.5,308.5C 175.167,308.5 163.833,308.5 152.5,308.5C 152.831,331.673 152.498,354.673 151.5,377.5C 151.5,354.167 151.5,330.833 151.5,307.5C 163.167,307.5 174.833,307.5 186.5,307.5 Z"/></g>
<g><path style="opacity:1" fill="#ce0000" d="M 186.5,308.5 C 186.5,308.833 186.5,309.167 186.5,309.5C 175.5,309.5 164.5,309.5 153.5,309.5C 154.156,332.858 153.49,355.858 151.5,378.5C 151.5,378.167 151.5,377.833 151.5,377.5C 152.498,354.673 152.831,331.673 152.5,308.5C 163.833,308.5 175.167,308.5 186.5,308.5 Z"/></g>
<g><path style="opacity:1" fill="#4c0000" d="M 671.5,378.5 C 672.499,424.33 672.832,470.33 672.5,516.5C 661.167,516.5 649.833,516.5 638.5,516.5C 649.321,515.505 660.321,515.172 671.5,515.5C 671.5,469.833 671.5,424.167 671.5,378.5 Z"/></g>
<g><path style="opacity:1" fill="#a90001" d="M 151.5,377.5 C 151.5,377.833 151.5,378.167 151.5,378.5C 140.5,378.5 129.5,378.5 118.5,378.5C 118.5,412.5 118.5,446.5 118.5,480.5C 129.5,481.167 140.5,481.833 151.5,482.5C 140.167,482.5 128.833,482.5 117.5,482.5C 117.5,447.5 117.5,412.5 117.5,377.5C 128.833,377.5 140.167,377.5 151.5,377.5 Z"/></g>
<g><path style="opacity:1" fill="#260000" d="M 638.5,377.5 C 650.167,377.5 661.833,377.5 673.5,377.5C 673.832,424.003 673.499,470.336 672.5,516.5C 672.832,470.33 672.499,424.33 671.5,378.5C 660.321,378.828 649.321,378.495 638.5,377.5 Z"/></g>
<g><path style="opacity:1" fill="#4c0000" d="M 536.5,413.5 C 546.992,414.33 557.659,414.83 568.5,415C 557.839,415.5 547.172,415.667 536.5,415.5C 536.831,437.673 536.497,459.673 535.5,481.5C 535.169,458.661 535.503,435.994 536.5,413.5 Z"/></g>
<g><path style="opacity:1" fill="#6b0000" d="M 568.5,412.5 C 558.013,413.494 547.346,413.828 536.5,413.5C 535.503,435.994 535.169,458.661 535.5,481.5C 535.167,482.5 534.5,483.167 533.5,483.5C 522.5,483.5 511.5,483.5 500.5,483.5C 500.5,494.5 500.5,505.5 500.5,516.5C 500.167,516.5 499.833,516.5 499.5,516.5C 499.5,505.167 499.5,493.833 499.5,482.5C 511.012,482.828 522.346,482.495 533.5,481.5C 534.498,458.673 534.831,435.673 534.5,412.5C 545.833,412.5 557.167,412.5 568.5,412.5 Z"/></g>
<g><path style="opacity:1" fill="#be0002" d="M 118.5,480.5 C 130.081,480.179 141.581,480.512 153,481.5C 153.5,492.828 153.667,504.162 153.5,515.5C 164.679,515.172 175.679,515.505 186.5,516.5C 175.167,516.5 163.833,516.5 152.5,516.5C 151.505,505.346 151.172,494.012 151.5,482.5C 140.5,481.833 129.5,481.167 118.5,480.5 Z"/></g>
<g><path style="opacity:1" fill="#510000" d="M 533.5,483.5 C 523.554,485.475 513.221,486.142 502.5,485.5C 503.142,496.221 502.475,506.554 500.5,516.5C 500.5,505.5 500.5,494.5 500.5,483.5C 511.5,483.5 522.5,483.5 533.5,483.5 Z"/></g>
<g><path style="opacity:1" fill="#b90000" d="M 499.5,481.5 C 510.833,481.5 522.167,481.5 533.5,481.5C 522.346,482.495 511.012,482.828 499.5,482.5C 499.5,493.833 499.5,505.167 499.5,516.5C 499.167,516.5 498.833,516.5 498.5,516.5C 498.172,504.655 498.505,492.988 499.5,481.5 Z"/></g>
<g><path style="opacity:1" fill="#cd0000" d="M 394.5,516.5 C 359.996,516.168 325.663,516.502 291.5,517.5C 290.833,528.5 290.167,539.5 289.5,550.5C 289.179,538.919 289.512,527.419 290.5,516C 325.336,515.169 360.002,515.336 394.5,516.5 Z"/></g>
<g><path style="opacity:1" fill="#221a1a" d="M 291.5,517.5 C 325.833,517.5 360.167,517.5 394.5,517.5C 394.5,528.833 394.5,540.167 394.5,551.5C 360.167,551.5 325.833,551.5 291.5,551.5C 291.5,540.167 291.5,528.833 291.5,517.5 Z"/></g>
<g><path style="opacity:1" fill="#2b0000" d="M 638.5,516.5 C 649.833,516.5 661.167,516.5 672.5,516.5C 661.346,517.495 650.012,517.828 638.5,517.5C 638.5,528.5 638.5,539.5 638.5,550.5C 638.167,550.5 637.833,550.5 637.5,550.5C 637.172,538.988 637.505,527.654 638.5,516.5 Z"/></g>
<g><path style="opacity:1" fill="#000000" d="M 292.5,518.5 C 326.167,518.5 359.833,518.5 393.5,518.5C 393.5,529.167 393.5,539.833 393.5,550.5C 359.833,550.5 326.167,550.5 292.5,550.5C 292.5,539.833 292.5,529.167 292.5,518.5 Z"/></g>
<g><path style="opacity:1" fill="#7c0000" d="M 152.5,516.5 C 163.833,516.5 175.167,516.5 186.5,516.5C 187.495,527.654 187.828,538.988 187.5,550.5C 187.5,550.833 187.5,551.167 187.5,551.5C 186.505,540.346 186.172,529.012 186.5,517.5C 174.988,517.828 163.654,517.495 152.5,516.5 Z"/></g>
<g><path style="opacity:1" fill="#670000" d="M 291.5,517.5 C 325.663,516.502 359.996,516.168 394.5,516.5C 395.495,527.654 395.828,538.988 395.5,550.5C 395.5,550.833 395.5,551.167 395.5,551.5C 395.167,551.5 394.833,551.5 394.5,551.5C 394.5,540.167 394.5,528.833 394.5,517.5C 360.167,517.5 325.833,517.5 291.5,517.5 Z"/></g>
<g><path style="opacity:1" fill="#8c0000" d="M 464.5,516.5 C 475.833,516.5 487.167,516.5 498.5,516.5C 498.833,516.5 499.167,516.5 499.5,516.5C 488.346,517.495 477.012,517.828 465.5,517.5C 465.828,529.012 465.495,540.346 464.5,551.5C 464.5,539.833 464.5,528.167 464.5,516.5 Z"/></g>
<g><path style="opacity:1" fill="#a30000" d="M 291.5,517.5 C 291.5,528.833 291.5,540.167 291.5,551.5C 291.167,551.5 290.833,551.5 290.5,551.5C 256.167,551.5 221.833,551.5 187.5,551.5C 187.5,551.167 187.5,550.833 187.5,550.5C 221.5,550.5 255.5,550.5 289.5,550.5C 290.167,539.5 290.833,528.5 291.5,517.5 Z"/></g>
<g><path style="opacity:1" fill="#c60000" d="M 464.5,516.5 C 464.5,528.167 464.5,539.833 464.5,551.5C 452.833,551.5 441.167,551.5 429.5,551.5C 418.167,551.5 406.833,551.5 395.5,551.5C 395.5,551.167 395.5,550.833 395.5,550.5C 418.167,550.5 440.833,550.5 463.5,550.5C 463.172,538.988 463.505,527.654 464.5,516.5 Z"/></g>
<g><path style="opacity:1" fill="#3a0000" d="M 637.5,550.5 C 603.167,551.167 568.833,551.833 534.5,552.5C 534.828,563.679 534.495,574.679 533.5,585.5C 533.5,573.833 533.5,562.167 533.5,550.5C 568.167,550.5 602.833,550.5 637.5,550.5 Z"/></g>
<g><path style="opacity:1" fill="#160000" d="M 637.5,550.5 C 637.833,550.5 638.167,550.5 638.5,550.5C 604.183,552.493 569.516,553.16 534.5,552.5C 568.833,551.833 603.167,551.167 637.5,550.5 Z"/></g>
<g><path style="opacity:1" fill="#2c1918" d="M 187.5,551.5 C 221.833,551.5 256.167,551.5 290.5,551.5C 290.5,585.833 290.5,620.167 290.5,654.5C 290.167,654.5 289.833,654.5 289.5,654.5C 289.5,620.5 289.5,586.5 289.5,552.5C 255.329,552.832 221.329,552.498 187.5,551.5 Z"/></g>
<g><path style="opacity:1" fill="#2c1f1f" d="M 395.5,551.5 C 406.833,551.5 418.167,551.5 429.5,551.5C 429.5,551.833 429.5,552.167 429.5,552.5C 418.5,552.5 407.5,552.5 396.5,552.5C 396.5,586.5 396.5,620.5 396.5,654.5C 396.167,654.5 395.833,654.5 395.5,654.5C 395.5,620.167 395.5,585.833 395.5,551.5 Z"/></g>
<g><path style="opacity:1" fill="#fefefe" d="M 186.5,621.5 C 209.5,621.5 232.5,621.5 255.5,621.5C 255.172,633.012 255.505,644.346 256.5,655.5C 267.321,656.495 278.321,656.828 289.5,656.5C 289.179,668.081 289.512,679.581 290.5,691C 325.5,691.667 360.5,691.667 395.5,691C 396.488,679.581 396.821,668.081 396.5,656.5C 453.5,656.5 510.5,656.5 567.5,656.5C 567.5,667.5 567.5,678.5 567.5,689.5C 544.661,689.169 521.994,689.503 499.5,690.5C 498.505,701.654 498.172,712.988 498.5,724.5C 429.833,724.5 361.167,724.5 292.5,724.5C 291.833,724.5 291.167,724.5 290.5,724.5C 279.086,724.811 267.752,724.477 256.5,723.5C 256.5,712.5 256.5,701.5 256.5,690.5C 245.346,689.505 234.012,689.172 222.5,689.5C 222.828,677.988 222.495,666.654 221.5,655.5C 198.834,655.129 176.167,654.795 153.5,654.5C 153.5,632.167 153.5,609.833 153.5,587.5C 164.167,587.5 174.833,587.5 185.5,587.5C 185.172,599.012 185.505,610.346 186.5,621.5 Z"/></g>
<g><path style="opacity:1" fill="#fefefe" d="M 602.5,586.5 C 602.5,586.833 602.5,587.167 602.5,587.5C 602.5,609.833 602.5,632.167 602.5,654.5C 591.5,654.5 580.5,654.5 569.5,654.5C 569.5,654.167 569.5,653.833 569.5,653.5C 569.5,631.167 569.5,608.833 569.5,586.5C 580.5,586.5 591.5,586.5 602.5,586.5 Z"/></g>
<g><path style="opacity:1" fill="#151515" d="M 568.5,585.5 C 591.663,584.337 614.996,584.17 638.5,585C 639.831,608.598 639.831,632.098 638.5,655.5C 638.831,632.327 638.498,609.327 637.5,586.5C 614.673,585.502 591.673,585.169 568.5,585.5 Z"/></g>
<g><path style="opacity:1" fill="#c5c5c5" d="M 186.5,586.5 C 186.5,598.167 186.5,609.833 186.5,621.5C 185.505,610.346 185.172,599.012 185.5,587.5C 174.833,587.5 164.167,587.5 153.5,587.5C 153.5,609.833 153.5,632.167 153.5,654.5C 153.167,654.5 152.833,654.5 152.5,654.5C 152.5,631.833 152.5,609.167 152.5,586.5C 163.833,585.167 175.167,585.167 186.5,586.5 Z"/></g>
<g><path style="opacity:1" fill="#8e8e8e" d="M 568.5,585.5 C 591.673,585.169 614.673,585.502 637.5,586.5C 625.833,586.5 614.167,586.5 602.5,586.5C 591.5,586.5 580.5,586.5 569.5,586.5C 569.5,608.833 569.5,631.167 569.5,653.5C 569.167,653.5 568.833,653.5 568.5,653.5C 568.5,631.167 568.5,608.833 568.5,586.5C 568.5,586.167 568.5,585.833 568.5,585.5 Z"/></g>
<g><path style="opacity:1" fill="#b2b2b2" d="M 602.5,587.5 C 602.5,587.167 602.5,586.833 602.5,586.5C 614.167,586.5 625.833,586.5 637.5,586.5C 637.831,609.339 637.497,632.006 636.5,654.5C 636.5,632.167 636.5,609.833 636.5,587.5C 625.5,587.5 614.5,587.5 603.5,587.5C 603.167,587.5 602.833,587.5 602.5,587.5 Z"/></g>
<g><path style="opacity:1" fill="#e8e8e8" d="M 602.5,587.5 C 602.833,587.5 603.167,587.5 603.5,587.5C 603.5,609.833 603.5,632.167 603.5,654.5C 603.5,654.833 603.5,655.167 603.5,655.5C 603.167,655.5 602.833,655.5 602.5,655.5C 591.321,655.828 580.321,655.495 569.5,654.5C 580.5,654.5 591.5,654.5 602.5,654.5C 602.5,632.167 602.5,609.833 602.5,587.5 Z"/></g>
<g><path style="opacity:1" fill="#cacaca" d="M 603.5,587.5 C 614.5,587.5 625.5,587.5 636.5,587.5C 636.5,609.833 636.5,632.167 636.5,654.5C 625.5,654.5 614.5,654.5 603.5,654.5C 603.5,632.167 603.5,609.833 603.5,587.5 Z"/></g>
<g><path style="opacity:1" fill="#bbbbbb" d="M 604.5,588.5 C 614.833,588.5 625.167,588.5 635.5,588.5C 635.5,609.833 635.5,631.167 635.5,652.5C 625.167,652.5 614.833,652.5 604.5,652.5C 604.5,631.167 604.5,609.833 604.5,588.5 Z"/></g>
<g><path style="opacity:1" fill="#8f8f8f" d="M 186.5,586.5 C 187.495,597.654 187.828,608.988 187.5,620.5C 210.339,620.169 233.006,620.503 255.5,621.5C 232.5,621.5 209.5,621.5 186.5,621.5C 186.5,609.833 186.5,598.167 186.5,586.5 Z"/></g>
<g><path style="opacity:1" fill="#666666" d="M 255.5,621.5 C 256.495,632.321 256.828,643.321 256.5,654.5C 267.5,654.5 278.5,654.5 289.5,654.5C 289.833,654.5 290.167,654.5 290.5,654.5C 279.346,655.495 268.012,655.828 256.5,655.5C 255.505,644.346 255.172,633.012 255.5,621.5 Z"/></g>
<g><path style="opacity:1" fill="#999999" d="M 290.5,551.5 C 290.833,551.5 291.167,551.5 291.5,551.5C 291.5,585.833 291.5,620.167 291.5,654.5C 325.833,654.5 360.167,654.5 394.5,654.5C 394.5,620.167 394.5,585.833 394.5,551.5C 394.833,551.5 395.167,551.5 395.5,551.5C 395.5,585.833 395.5,620.167 395.5,654.5C 395.5,654.833 395.5,655.167 395.5,655.5C 395.5,655.833 395.5,656.167 395.5,656.5C 395.828,667.679 395.495,678.679 394.5,689.5C 394.5,689.167 394.5,688.833 394.5,688.5C 394.5,677.833 394.5,667.167 394.5,656.5C 360.337,655.502 326.004,655.168 291.5,655.5C 291.5,666.833 291.5,678.167 291.5,689.5C 290.833,678.5 290.167,667.5 289.5,656.5C 278.321,656.828 267.321,656.495 256.5,655.5C 268.012,655.828 279.346,655.495 290.5,654.5C 290.5,620.167 290.5,585.833 290.5,551.5 Z"/></g>
<g><path style="opacity:1" fill="#e5e5e5" d="M 291.5,551.5 C 325.833,551.5 360.167,551.5 394.5,551.5C 394.5,585.833 394.5,620.167 394.5,654.5C 360.167,654.5 325.833,654.5 291.5,654.5C 291.5,620.167 291.5,585.833 291.5,551.5 Z"/></g>
<g><path style="opacity:1" fill="#fefefe" d="M 292.5,552.5 C 326.167,552.5 359.833,552.5 393.5,552.5C 393.5,586.167 393.5,619.833 393.5,653.5C 359.833,653.5 326.167,653.5 292.5,653.5C 292.5,619.833 292.5,586.167 292.5,552.5 Z"/></g>
<g><path style="opacity:1" fill="#484848" d="M 568.5,586.5 C 568.5,608.833 568.5,631.167 568.5,653.5C 511.176,655.496 453.51,656.163 395.5,655.5C 395.5,655.167 395.5,654.833 395.5,654.5C 395.833,654.5 396.167,654.5 396.5,654.5C 453.5,654.5 510.5,654.5 567.5,654.5C 567.169,631.661 567.503,608.994 568.5,586.5 Z"/></g>
<g><path style="opacity:1" fill="#7a7a7a" d="M 637.5,586.5 C 638.498,609.327 638.831,632.327 638.5,655.5C 626.833,655.5 615.167,655.5 603.5,655.5C 603.5,655.167 603.5,654.833 603.5,654.5C 614.5,654.5 625.5,654.5 636.5,654.5C 637.497,632.006 637.831,609.339 637.5,586.5 Z"/></g>
<g><path style="opacity:1" fill="#535353" d="M 152.5,586.5 C 152.5,609.167 152.5,631.833 152.5,654.5C 163.654,655.495 174.988,655.828 186.5,655.5C 186.5,655.833 186.5,656.167 186.5,656.5C 174.833,656.5 163.167,656.5 151.5,656.5C 151.169,632.994 151.502,609.661 152.5,586.5 Z"/></g>
<g><path style="opacity:1" fill="#bcbcbc" d="M 152.5,654.5 C 152.833,654.5 153.167,654.5 153.5,654.5C 176.167,654.795 198.834,655.129 221.5,655.5C 221.5,666.833 221.5,678.167 221.5,689.5C 210.167,689.5 198.833,689.5 187.5,689.5C 187.828,677.988 187.495,666.654 186.5,655.5C 174.988,655.828 163.654,655.495 152.5,654.5 Z"/></g>
<g><path style="opacity:1" fill="#bcbcbc" d="M 568.5,653.5 C 568.833,653.5 569.167,653.5 569.5,653.5C 569.5,653.833 569.5,654.167 569.5,654.5C 580.321,655.495 591.321,655.828 602.5,655.5C 602.5,666.833 602.5,678.167 602.5,689.5C 591.167,689.5 579.833,689.5 568.5,689.5C 568.828,678.321 568.495,667.321 567.5,656.5C 510.5,656.5 453.5,656.5 396.5,656.5C 396.167,656.5 395.833,656.5 395.5,656.5C 395.5,656.167 395.5,655.833 395.5,655.5C 453.51,656.163 511.176,655.496 568.5,653.5 Z"/></g>
<g><path style="opacity:0.998" fill="#2a2a2a" d="M 603.5,655.5 C 615.167,655.5 626.833,655.5 638.5,655.5C 627.346,656.495 616.012,656.828 604.5,656.5C 604.828,668.012 604.495,679.346 603.5,690.5C 603.5,678.833 603.5,667.167 603.5,655.5 Z"/></g>
<g><path style="opacity:1" fill="#323232" d="M 394.5,656.5 C 360.5,656.5 326.5,656.5 292.5,656.5C 292.5,667.167 292.5,677.833 292.5,688.5C 326.5,688.5 360.5,688.5 394.5,688.5C 394.5,688.833 394.5,689.167 394.5,689.5C 360.167,690.833 325.833,690.833 291.5,689.5C 291.5,678.167 291.5,666.833 291.5,655.5C 326.004,655.168 360.337,655.502 394.5,656.5 Z"/></g>
<g><path style="opacity:1" fill="#6d6d6d" d="M 186.5,655.5 C 187.495,666.654 187.828,677.988 187.5,689.5C 198.833,689.5 210.167,689.5 221.5,689.5C 221.5,689.833 221.5,690.167 221.5,690.5C 209.833,690.5 198.167,690.5 186.5,690.5C 186.5,679.167 186.5,667.833 186.5,656.5C 186.5,656.167 186.5,655.833 186.5,655.5 Z"/></g>
<g><path style="opacity:1" fill="#e4e4e4" d="M 221.5,655.5 C 222.495,666.654 222.828,677.988 222.5,689.5C 234.012,689.172 245.346,689.505 256.5,690.5C 245.167,690.5 233.833,690.5 222.5,690.5C 222.167,690.5 221.833,690.5 221.5,690.5C 221.5,690.167 221.5,689.833 221.5,689.5C 221.5,678.167 221.5,666.833 221.5,655.5 Z"/></g>
<g><path style="opacity:1" fill="#e5e5e5" d="M 567.5,656.5 C 568.495,667.321 568.828,678.321 568.5,689.5C 568.5,689.833 568.5,690.167 568.5,690.5C 568.167,690.5 567.833,690.5 567.5,690.5C 544.833,690.5 522.167,690.5 499.5,690.5C 521.994,689.503 544.661,689.169 567.5,689.5C 567.5,678.5 567.5,667.5 567.5,656.5 Z"/></g>
<g><path style="opacity:1" fill="#676767" d="M 602.5,655.5 C 602.833,655.5 603.167,655.5 603.5,655.5C 603.5,667.167 603.5,678.833 603.5,690.5C 592.167,690.5 580.833,690.5 569.5,690.5C 569.828,702.012 569.495,713.346 568.5,724.5C 568.5,713.167 568.5,701.833 568.5,690.5C 568.5,690.167 568.5,689.833 568.5,689.5C 579.833,689.5 591.167,689.5 602.5,689.5C 602.5,678.167 602.5,666.833 602.5,655.5 Z"/></g>
<g><path style="opacity:1" fill="#dadada" d="M 289.5,656.5 C 290.167,667.5 290.833,678.5 291.5,689.5C 325.833,690.833 360.167,690.833 394.5,689.5C 395.495,678.679 395.828,667.679 395.5,656.5C 395.833,656.5 396.167,656.5 396.5,656.5C 396.821,668.081 396.488,679.581 395.5,691C 360.5,691.667 325.5,691.667 290.5,691C 289.512,679.581 289.179,668.081 289.5,656.5 Z"/></g>
<g><path style="opacity:1" fill="#000000" d="M 394.5,656.5 C 394.5,667.167 394.5,677.833 394.5,688.5C 360.5,688.5 326.5,688.5 292.5,688.5C 292.5,677.833 292.5,667.167 292.5,656.5C 326.5,656.5 360.5,656.5 394.5,656.5 Z"/></g>
<g><path style="opacity:1" fill="#c9c9c9" d="M 222.5,690.5 C 233.833,690.5 245.167,690.5 256.5,690.5C 256.5,701.5 256.5,712.5 256.5,723.5C 245.167,723.5 233.833,723.5 222.5,723.5C 222.5,712.5 222.5,701.5 222.5,690.5 Z"/></g>
<g><path style="opacity:1" fill="#bbbbbb" d="M 224.5,691.5 C 234.833,691.5 245.167,691.5 255.5,691.5C 255.5,701.833 255.5,712.167 255.5,722.5C 245.167,722.5 234.833,722.5 224.5,722.5C 224.5,712.167 224.5,701.833 224.5,691.5 Z"/></g>
<g><path style="opacity:1" fill="#c7c7c7" d="M 499.5,690.5 C 522.167,690.5 544.833,690.5 567.5,690.5C 567.5,701.5 567.5,712.5 567.5,723.5C 544.833,723.5 522.167,723.5 499.5,723.5C 499.5,712.5 499.5,701.5 499.5,690.5 Z"/></g>
<g><path style="opacity:1" fill="#bbbbbb" d="M 500.5,691.5 C 522.167,691.5 543.833,691.5 565.5,691.5C 565.5,701.5 565.5,711.5 565.5,721.5C 543.833,721.5 522.167,721.5 500.5,721.5C 500.5,711.5 500.5,701.5 500.5,691.5 Z"/></g>
<g><path style="opacity:1" fill="#272727" d="M 186.5,690.5 C 198.167,690.5 209.833,690.5 221.5,690.5C 221.5,701.833 221.5,713.167 221.5,724.5C 220.505,713.679 220.172,702.679 220.5,691.5C 208.988,691.828 197.654,691.495 186.5,690.5 Z"/></g>
<g><path style="opacity:1" fill="#8a8a8a" d="M 221.5,690.5 C 221.833,690.5 222.167,690.5 222.5,690.5C 222.5,701.5 222.5,712.5 222.5,723.5C 233.833,723.5 245.167,723.5 256.5,723.5C 267.752,724.477 279.086,724.811 290.5,724.5C 290.5,724.833 290.5,725.167 290.5,725.5C 267.327,725.831 244.327,725.498 221.5,724.5C 221.5,713.167 221.5,701.833 221.5,690.5 Z"/></g>
<g><path style="opacity:1" fill="#a3a3a3" d="M 567.5,690.5 C 567.833,690.5 568.167,690.5 568.5,690.5C 568.5,701.833 568.5,713.167 568.5,724.5C 545.5,724.5 522.5,724.5 499.5,724.5C 499.5,724.167 499.5,723.833 499.5,723.5C 522.167,723.5 544.833,723.5 567.5,723.5C 567.5,712.5 567.5,701.5 567.5,690.5 Z"/></g>
<g><path style="opacity:1" fill="#dadada" d="M 499.5,690.5 C 499.5,701.5 499.5,712.5 499.5,723.5C 499.5,723.833 499.5,724.167 499.5,724.5C 499.5,724.833 499.5,725.167 499.5,725.5C 499.167,725.5 498.833,725.5 498.5,725.5C 429.665,725.833 360.998,725.499 292.5,724.5C 361.167,724.5 429.833,724.5 498.5,724.5C 498.172,712.988 498.505,701.654 499.5,690.5 Z"/></g>
<g><path style="opacity:1" fill="#363636" d="M 499.5,724.5 C 522.5,724.5 545.5,724.5 568.5,724.5C 546.006,725.497 523.339,725.831 500.5,725.5C 500.828,737.012 500.495,748.346 499.5,759.5C 499.5,748.167 499.5,736.833 499.5,725.5C 499.5,725.167 499.5,724.833 499.5,724.5 Z"/></g>
<g><path style="opacity:1" fill="#c4c4c4" d="M 290.5,725.5 C 290.5,725.167 290.5,724.833 290.5,724.5C 291.167,724.5 291.833,724.5 292.5,724.5C 360.998,725.499 429.665,725.833 498.5,725.5C 498.5,736.5 498.5,747.5 498.5,758.5C 429.5,758.5 360.5,758.5 291.5,758.5C 291.828,747.321 291.495,736.321 290.5,725.5 Z"/></g>
<g><path style="opacity:1" fill="#bababa" d="M 294.5,726.5 C 361.5,726.5 428.5,726.5 495.5,726.5C 495.5,736.5 495.5,746.5 495.5,756.5C 428.5,756.5 361.5,756.5 294.5,756.5C 294.5,746.5 294.5,736.5 294.5,726.5 Z"/></g>
<g><path style="opacity:1" fill="#8c8c8c" d="M 498.5,725.5 C 498.833,725.5 499.167,725.5 499.5,725.5C 499.5,736.833 499.5,748.167 499.5,759.5C 429.998,759.833 360.665,759.499 291.5,758.5C 360.5,758.5 429.5,758.5 498.5,758.5C 498.5,747.5 498.5,736.5 498.5,725.5 Z"/></g>
<g><path style="opacity:1" fill="#3c3c3c" d="M 290.5,725.5 C 291.495,736.321 291.828,747.321 291.5,758.5C 360.665,759.499 429.998,759.833 499.5,759.5C 430.002,760.499 360.335,760.833 290.5,760.5C 290.5,748.833 290.5,737.167 290.5,725.5 Z"/></g>
</svg>
